<?xml version='1.0' encoding='utf-8'?>
<svg xmlns="http://www.w3.org/2000/svg" version="1.1" id="Layer_1" x="0px" y="0px" viewBox="0 0 3600 3600" style="enable-background:new 0 0 3600 3600;"> <style type="text/css"> .st0{fill:#FFFFFF;} .st1{opacity:0.998;enable-background:new ;} .st2{fill:none;stroke:#000000;stroke-width:5.8434;stroke-linejoin:round;} .st3{stroke:#000000;stroke-width:5.8435;stroke-linejoin:round;} </style> <rect id="XMLID_1_" class="st0" width="3600" height="3600"/> <g id="g1106_1_" transform="translate(0,-0.55883434)"> <path id="path1040_1_" d=" M2522.8,1538.2c2.5-1.8-21-51.8-76.8-129.9c-10-14-22.8-28.6-39.3-40.4c-17.5-12.4-37.8-21-60.1-27.3 c-128.9-36.7-285.4-61.1-471.8-59.9c-9.5,0.1-19.1,0.2-28.5,0.4c-77.5,1.5-150.3,7.5-219.5,18.3c-60.8,9.7-114.6,21.8-164.9,41.6 c-156.7,126.1-217.2,248.6-213.3,251.1c3.9,2.4,70.3-113.5,224.2-231.9c47.8-17.4,98.9-27.5,157.8-35.7 c68.1-9.8,139.7-15.1,216.3-16.5c9.3-0.2,18.7-0.3,28.2-0.3c184.6-1.1,337.7,20.4,466.3,53c21,5.4,39.4,12.3,55,22.6 c14.7,9.5,26.9,22.4,36.8,34.9C2490.5,1490.7,2520.3,1540,2522.8,1538.2L2522.8,1538.2z"/> <path id="path1042_1_" d=" M2728.8,2071.5c-3-0.6,0.9-24.6-3.1-63.2v0c-1.6-15.5-5.1-43.6-5.8-66.3c-0.8-29.5,1.5-61.3,0.7-90.9c-0.4-19.5-1.9-39.7-4.8-60.2 c-2.9-20.2-7.1-39.3-12.5-57.6c-28.9-58.6-61.3-107.1-80.9-142.5l0,0c-30.7-0.5-50.3-5.4-49.9-8.1c0.3-2.8,20-2.8,56.2-3.3l0,0 c15.5,21.8,67.7,92,97.6,144.4c6.3,19.7,11.1,40.5,14.3,62.3c3.3,22.1,4.8,43.9,4.9,64.7c0.1,33.9-3.4,64.4-4.2,91.2 c-0.8,24.2,0.6,46.5,0.4,65.6l0,0C2741.5,2048.8,2731.8,2072.1,2728.8,2071.5z"/> <path id="path1044_1_" d=" M2622.1,2097.7c1.5,3.9-36.6,24.8-88.9,33.6c-4.1,0.7-8.1,1.3-12.1,1.7l0,0c-47,5.6-82.7,0.7-82.9-3.2c-0.1-3.9,36.2-5.5,80.9-11.8 l0,0c3.8-0.5,7.6-1.1,11.6-1.8C2580.6,2107.9,2620.5,2093.8,2622.1,2097.7L2622.1,2097.7z"/> <path id="path1046_1_" d=" M872.1,2143.2c0.3-3.5,76.6,1.2,199.8,7.6c134.6,7,281.8,13.4,481.4,18.1c257.5,6.1,482,7.2,598.1,10.6c17.3,0.5,31.8,1.6,43.8,1.8 l0,0c25.9,0.3,38.7-3.7,39.4-2.3c0.6,1.4-13.2,8.9-39.1,10.9l0,0c-15.4,1.3-24,1-44,1.8c-109.9,4.3-346.8,8.7-598.7,2.7 c-193.4-4.6-354-14.2-482-25.7C947.5,2157.8,871.7,2146.7,872.1,2143.2z"/> <path id="path1048_1_" d=" M2111,1964.7c0-4.2-273.6-5.4-610.7-12.4c-337-7-610.5-16.3-610.7-12.1c-0.2,4.2,273.2,20.2,610.4,27.2 C1837.2,1974.5,2111,1968.9,2111,1964.7L2111,1964.7z"/> <path id="path1050_1_" d=" M2309,1402.2c-2.5,0.6,7.9,46.9,11.1,104.8c3.2,58-0.7,105.5,1.8,105.7c2.6,0.3,10.7-47.4,7.5-106.2 C2326.2,1447.7,2311.5,1401.6,2309,1402.2L2309,1402.2z"/> <path id="path1052_1_" d=" M1245.9,1610.8c0.3,2.1,57.6-4,150.3-8.9c98.7-5.2,214.9-7.6,362.8-2.6c283.7,9.6,513.9,34.7,514.3,30.6 c0.4-4.2-229.2-36.2-513.8-45.7c-146.9-4.9-266.6-1-364,7.1C1302.6,1598.8,1245.6,1608.7,1245.9,1610.8L1245.9,1610.8z"/> <path id="path1054_1_" d=" M1468.4,1377.4c0.5,2,44.5-6.8,115.9-15.2c75.3-8.8,166.8-14.9,280.8-11.9c220.2,5.8,398.4,38.5,399.1,34.4 c0.7-4.1-176.8-43.8-398.7-49.6c-114-3-208,4.8-282.6,16.5C1511.2,1362.7,1467.9,1375.3,1468.4,1377.4L1468.4,1377.4z"/> <path id="path1056_1_" d=" M1201.7,1594.7c0.3-3.2-46.5-14.8-122.6-6.9c-35.4,3.6-83.9,13.5-122.2,45.6c-36.5,31.8-55.9,77.8-68.4,128.8 c-0.9,3.5-1.7,7-2.5,10.5c-6,25.5-10.4,51.2-14.1,75.2c-3.3,21-5.7,39.3-10.1,57.8l0,0c-8.7,57.1-9.3,104.4-3.4,145.7l0,0 c9,63.4,18.4,99.7,21.3,99.5s-1.6-39.5-6.4-101.2l0,0c-3.2-40.2-0.9-84.6,8.8-139.9v0c5.1-19.5,7.9-38.2,11.3-58.5 c4.1-23.8,8.5-49,14.4-73.5c0.8-3.4,1.7-6.7,2.6-10.1c12.8-49.2,28.8-91.2,60.3-118.6c31.7-28.8,77.1-39.7,110.7-45.2 C1153.8,1592.2,1201.4,1597.9,1201.7,1594.7L1201.7,1594.7z"/> <path id="path1058_1_" d=" M2255,2185.9c7.2,0.4,15.3-130.5,34.9-291.5c0.3-2.3,1.1-8.7,1.3-11c4.9-39.9,9.4-73.6,19.3-106.3c3.8-11.4,6.3-20.8,11.8-26.6 c1.5-1.3,2.2-2.4,2-2c-0.4-0.3,0.6,0.3,2.1,0.9c21.9,8.7,36.7,26.7,44.4,43l0,0c17.2,36.7,20,64.8,23.2,64.2 c3.2-0.6,7.2-26.7-7.3-70.5v0c-6.8-20.3-22.4-43.5-49.5-56.5c-4-3.1-9.8-4.8-16.9-3.9c-6.9,1.6-12.1,4.9-15.3,8.7 c-9.8,10.8-14.7,23.3-18.3,35c-11.7,34.8-17.4,70.7-22.2,110.7c-0.4,3.7-0.9,7.4-1.3,11C2243.9,2054.4,2247.7,2185.6,2255,2185.9z"/> <path id="path1060_1_" d=" M2685.8,1721.3c2.1,1.7-9.7,17.9-21.3,47c-12.7,31.9-21,69.4-25.3,121.8c-0.1,1.8-0.3,3.6-0.4,5.4c-7,100.5,3.9,183.7-1.5,184.4 c-5.4,0.7-25.3-82-18.3-185.7c0.1-1.9,0.3-3.7,0.4-5.6c4-53.3,15.8-94.7,32.6-126C2667.7,1733.2,2683.7,1719.6,2685.8,1721.3 L2685.8,1721.3z"/> <path id="path1062_1_" class="st1" d=" M2271.5,2198.7c2.9-0.9,9.1,20.8,28.8,44.7l0,0c5.9,6.9,13.6,14.6,22.2,16.5c5.9,1.7,13.1,0.6,19.9-2.6c7.9-3.7,15-10.2,22-18 c1.4-1.5,2.7-3.1,4-4.7c16-19.7,26.6-43.1,34-63.2c15.5-43.2,13.5-74.4,17.2-75c4.6-0.8,13.5,31.9-0.7,80.4 c-6.2,21.9-16.8,47.6-35.1,70.3c-1.5,1.8-3,3.6-4.6,5.4c-8,9.2-17.5,17.1-28.8,22.3c-10.6,4.9-22.5,5.7-33.3,2.3 c-14.2-5.2-23.5-15.6-29.2-24.7l0,0C2268.8,2222.2,2268.6,2199.6,2271.5,2198.7L2271.5,2198.7z"/> <path id="path1064_1_" d=" M2652,2087.1c2.4,0.1-5.3,38,15.1,76.8l0,0c4.8,8.1,13.2,18,21,15.6c0.1,0,0.3-0.1,0.4-0.1c8.4-0.7,13.1-12.9,17.2-22.5 c15.2-42.1,14.4-77.2,16.8-77.1c2.4,0.1,7.7,34.8-7,80.4c-2.9,10.7-9.5,25.3-24.6,29.7c-0.3,0-0.5,0.1-0.8,0.1 c-15.8,1.7-27.4-10.5-32.1-21.5l0,0c-10.2-21.7-10.4-44.7-9.7-58.4C2648.9,2095.5,2650.8,2087.1,2652,2087.1L2652,2087.1z"/> <path id="path1066_1_" d=" M883.5,2157.8c1.4-0.4,3,28.5,24.8,62.9l0,0c16.1,26.2,42.7,45.4,82.3,64.6h0c19.3,3,39.3,4,60.7,3.8c9.4-0.1,18.7-0.4,27.8-0.8 c45-1.7,80.4-6.4,112.6-18.2c23.5-19.5,36.5-35.5,43.8-51.2c6.6-14.3,6.8-23.8,7.7-23.8c0.9,0,2.3,9.9-3.5,25.7 c-6.2,17-19.6,36.1-43.8,56.6c-33.2,13.4-70.5,19.5-116.5,21.6c-9.3,0.4-18.9,0.7-28.6,0.7c-22.2,0.1-43.1-1.2-63.4-4.6l0,0 c-41-19.9-69.4-42.1-85.7-70.6l0,0C880.3,2185.9,882.1,2158.2,883.5,2157.8L883.5,2157.8z"/> <path id="path1068_1_" d=" M2518.6,2167.8c2.3-0.2,1.3,39.1,33.5,69.6l0,0c14.5,4.3,30,7,47.1,8.3c33.4,2.5,69-1.4,91.3-3.6c23.7-2.4,38.5-3.6,38.7-2.1 c0.2,1.5-14.1,5.3-38,9.6c-23,4.1-58.5,8.9-94.4,5.9c-18-1.5-34.5-4.8-49.7-9.7l0,0C2510.9,2208.7,2516.3,2168,2518.6,2167.8 L2518.6,2167.8z"/> <path id="path1070_1_" d=" M2338.2,2303c0.3,0,0.1,1.6-0.9,2.4l0,0c-1.1,1.2-2.7,2.3-5.1,3.6c-6.5,3.4-14.5,5.8-27.6,7.8c-32.4,5-70.4,5.1-123.2-0.6 c-13.8-1.5-27.4-3.3-40-4.9l0,0c-25.7-23.4-36.9-56-42.4-75.2c-6-20.8-8-33.3-6.7-33.6c1.2-0.3,5.4,11.6,12.7,31.3 c6.6,18,18,48.9,40.6,68.4l0,0c12.1,1.3,26.2,2.9,39.2,4.2c52.8,5.4,85.9,6.1,119.1,3.6c13.5-1,19.9-2.1,27.1-4.1 c2.7-0.8,3.9-1.2,5.4-1.9l0,0C2337.6,2302.9,2337.9,2303,2338.2,2303L2338.2,2303z"/> <ellipse id="ellipse1072_1_" transform="matrix(0.7376 -0.6753 0.6753 0.7376 -664.6769 1860.2313)" class="st2" cx="2061.1" cy="1785.3" rx="109.8" ry="90.2"/> <ellipse id="ellipse1074_1_" transform="matrix(-0.7376 -0.6753 0.6753 -0.7376 721.9453 3759.6958)" class="st2" cx="1091.5" cy="1739.6" rx="109.8" ry="90.2"/> <path id="path1076_1_" d=" M967.6,2198.8c1-0.8,7.3,6.7,20.7,14.3c15.4,8.7,32.8,13.7,60.6,19.4l0,0c7.8,1.5,15.9,2.8,24.2,3.7c62.2,7.3,113.8-4.1,114.4-1.1 c0.6,2.9-51.2,19.4-115.7,11.9c-8.7-1-17.1-2.4-25.1-4.1l0,0c-27.7-5.6-47.5-13.2-62.2-24.1 C971.2,2208.8,966.6,2199.6,967.6,2198.8L967.6,2198.8z"/> <path id="path1078_1_" d=" M1232.8,1519.7c-0.4,2.7-31.1-3.7-67.1,3.4l0,0c-2.8,0.6-5.6,1.3-8.3,2.1c-8.1,2.5-14.6,6.2-18.8,11.6c-5.2,6.1-7.6,15.4-9.3,22.3 c-3.3,14.7-7.6,24.6-9.1,24c-1.5-0.6-0.5-9.4,1.2-25.3c0.7-7.5,2.5-18,9-27.2c5.8-7.5,14-12.7,23.5-15.8c3.2-1,6.5-1.8,9.7-2.3l0,0 C1203.4,1505.7,1233.2,1516.9,1232.8,1519.7L1232.8,1519.7z"/> <path id="path1080_1_" d=" M2446.1,1531.3c0.1-1.5,10.1-2.1,26.7-1.8c15.5,0.3,41.2,1.6,63.8,10.9c7.7,3.2,14.8,7.1,21.1,11.8c9.2,6.8,13.6,17.4,12.2,27.2 c-5.5,26.7-24.3,33.4-25.6,32.1c-1.3-1.3,15.3-12.9,16.7-33.4c0.9-5.9-3.2-12.9-9.5-17.5c-5.7-4.1-11.9-7.6-19-10.4 c-19.7-8-45.8-10.8-60.4-12.9C2455.9,1535,2446,1532.8,2446.1,1531.3L2446.1,1531.3z"/> <path id="path1082_1_" d=" M2348.1,1408.4c3,0,3,45.3,6.5,99.7c3.5,54.3,16.9,95.9,14.1,96.9c-2.8,1.1-21.2-40.8-25-96.2 C2340.1,1453.4,2345.1,1408.4,2348.1,1408.4L2348.1,1408.4z"/> <path id="path1084_1_" d=" M2408.1,1419.3c-0.7,0.4,4,9.1,12.1,22.9c7.3,12.5,20.3,33.7,28.5,54.5c0.8,2,1.6,4.1,2.3,6.1c5,14.4,7.2,26.9,5.5,38.7 c-3.2,22.8-19.5,32.7-18.9,33.5c0.6,0.8,18.8-7.6,23.6-32.8c2.3-12.7,0.4-26.5-4.9-41.3c-0.7-2.1-1.5-4.2-2.4-6.3 c-8.6-21.9-21.9-42.2-30.3-54.6C2414.6,1426.8,2408.8,1418.9,2408.1,1419.3z"/> <path id="path1086_1_" d=" M1799.3,2031.9c0-4.2,74.8-7.6,166.9-7.6s166.9,3.4,166.9,7.6c0,4.2-74.8,7.6-166.9,7.6S1799.3,2036.1,1799.3,2031.9z"/> <path id="path1088_1_" d=" M1822.6,2070.7c-0.1-4.2,71.4-9.4,159.6-11.5c88.2-2.1,159.8-0.5,159.9,3.8c0.1,4.2-71.4,9.4-159.6,11.5 C1894.4,2076.6,1822.7,2075,1822.6,2070.7z"/> <path id="path1090_1_" d=" M1842,2103.1c0-4.2,68.6-7.9,153.3-8.3c84.6-0.4,153.3,2.8,153.3,7c0,4.2-68.6,7.9-153.3,8.3 C1910.7,2110.4,1842,2107.3,1842,2103.1L1842,2103.1z"/> <path id="path1092_1_" d=" M1170.7,2020.3c-0.3,4.2-58.2,3.6-129.2-1.4s-128.5-12.5-128.2-16.7c0.3-4.2,58.2-3.6,129.2,1.4S1171,2016.1,1170.7,2020.3z"/> <path id="path1094_1_" d=" M1159,2053.9c-0.3,4.2-56.4,3.9-125.3-0.8c-68.9-4.6-124.6-11.8-124.3-16c0.3-4.2,56.4-3.9,125.3,0.8 C1103.6,2042.5,1159.3,2049.7,1159,2053.9z"/> <path id="path1096_1_" d=" M1146.1,2083.7c-0.2,4.2-52,5-115.5,1.8c-63.5-3.2-115-9.2-114.7-13.5c0.2-4.2,52-5,115.5-1.8S1146.3,2079.5,1146.1,2083.7z"/> <path id="rect1098_1_" class="st3" d="M1344.5,2037.6l276.9,4.9c33.1,0.6,59.8,7.6,59.6,15.7l-0.8,31.1 c-0.2,8.1-27.2,14.2-60.4,13.6l-276.9-4.9c-33.1-0.6-59.8-7.6-59.6-15.7l0.8-31.1C1284.3,2043.2,1311.4,2037.1,1344.5,2037.6z"/> <path id="path1100_1_" d=" M2606.6,1746.2c1.3,0.2,0.7,12.4-2.7,32.6c-1.7,10.2-4.1,22.4-6.5,36.3c-4,24.1-4.3,47.3-4.1,79.8c0.1,20.1,0.7,41.5,0.5,63.9 c-0.1,7.4-0.2,14.7-0.5,21.9c-0.7,24.3-2.1,46.7-11.6,67.6c-3.5,7.9-9.1,15.1-16.9,19.6c-8.7,4.7-18.2,4.6-25.9,2.6 c-48.4,1.3-79.8,0.9-79.9-1.3c-0.1-2.2,31.2-5.7,80.8-9.4c6.5,1.1,13.9,1,19.2-2.2c4.8-2.7,8.3-8.1,11.2-14.5 c8-18.2,8.5-38.5,9.4-62.9c0.2-7.1,0.3-14.3,0.4-21.6c0.2-22.1-0.2-43.6,0.1-63.9c0.4-32.2,1.8-57.2,7.3-81.7 c2.9-13,6.9-27.1,9.3-36C2602.3,1757.2,2605.2,1746,2606.6,1746.2L2606.6,1746.2z"/> <path id="path1102_1_" d=" M1245.2,1820.8c-0.4-4.2,137.7-22.8,308.5-19.4c170.8,3.3,306.9,33.6,306.1,37.7s-136.7-19.2-306.4-22.5 C1383.8,1813.4,1245.6,1825,1245.2,1820.8L1245.2,1820.8z"/> <path id="path1104_1_" d=" M1357.3,1872.6c-0.6-4.2,77.5-22.7,174.9-19c97.4,3.6,172.1,33.3,170.7,37.3c-1.3,4-75.9-18.6-171.3-22.1 C1436.2,1865.4,1357.9,1876.8,1357.3,1872.6z"/> </g> </svg>